<svg xmlns="http://www.w3.org/2000/svg" width="122" height="36" viewBox="0 0 122 36">
    <g>
        <path d="M55.65,27.6H52.17V20.78L45.81,8.94h4.07l1.25,2.71c.72,1.57,1.31,2.89,1.77,3.95s.74,1.72.83,2l.17.42a52.94,52.94,0,0,1,2.85-6.34L58,8.94h4.07L55.65,20.67Z" fill="#373737"/>
        <path d="M82.12,18.21a10,10,0,0,1-2.4,7,9.13,9.13,0,0,1-12.83,0,9.92,9.92,0,0,1-2.41-7,9.92,9.92,0,0,1,2.39-7,9.19,9.19,0,0,1,12.86,0A9.89,9.89,0,0,1,82.12,18.21Zm-13.93,0a7.25,7.25,0,0,0,1.4,4.65,4.87,4.87,0,0,0,6.86.56,4.94,4.94,0,0,0,.56-.56,7.35,7.35,0,0,0,1.39-4.67A7.35,7.35,0,0,0,77,13.52a4.87,4.87,0,0,0-6.87-.58,4.54,4.54,0,0,0-.58.58,7.33,7.33,0,0,0-1.34,4.69Z" fill="#373737"/>
        <path d="M90.17,27.6H86.69V8.94h3.48Zm11.38,0h-4.4l-6.7-9.25L96.9,8.94h4.17L94.6,18.29Z" fill="#373737"/>
        <path d="M121.68,18.21a10,10,0,0,1-2.4,7,9.13,9.13,0,0,1-12.83,0,9.92,9.92,0,0,1-2.41-7,9.92,9.92,0,0,1,2.39-7,9.2,9.2,0,0,1,12.87,0A9.93,9.93,0,0,1,121.68,18.21Zm-13.92,0a7.18,7.18,0,0,0,1.39,4.65,4.88,4.88,0,0,0,7.42,0,7.3,7.3,0,0,0,1.35-4.67,7.31,7.31,0,0,0-1.35-4.68A4.87,4.87,0,0,0,109.7,13a5.29,5.29,0,0,0-.58.58A7.38,7.38,0,0,0,107.76,18.21Z" fill="#373737"/>
    </g>
    <polygon points="17.45 12.3 0 24.04 0 1 17.45 12.3" fill="#0072c9"/>
    <polygon points="34.24 1 34.24 23.19 18.04 35.4 0 24.04 34.24 1" fill="#ef454a"/>
</svg>
