<svg xmlns="http://www.w3.org/2000/svg" width="180" height="54" viewBox="0 0 180 54">
    <g>
        <path d="M85.13,40.59h-5V30.8L71,13.78h5.85l1.79,3.9q1.55,3.38,2.55,5.67c.66,1.52,1.06,2.47,1.19,2.84l.24.6a78.2,78.2,0,0,1,4.09-9.11l1.83-3.9h5.85L85.13,30.64Z" fill="#373737"/>
        <path d="M123.16,27.1q0,6.21-3.44,10a13.13,13.13,0,0,1-18.44,0,14.25,14.25,0,0,1-3.46-10q0-6.24,3.44-10a13.21,13.21,0,0,1,18.48,0Q123.16,20.83,123.16,27.1Zm-20,0a10.36,10.36,0,0,0,2,6.69,7,7,0,0,0,10.66,0,10.51,10.51,0,0,0,2-6.71,10.58,10.58,0,0,0-2-6.72,7,7,0,0,0-10.7,0A10.58,10.58,0,0,0,103.19,27.1Z" fill="#373737"/>
        <path d="M134.73,40.59h-5V13.78h5Zm16.35,0h-6.32L135.13,27.3l9.27-13.52h6L141.1,27.22Z" fill="#373737"/>
     <path d="M180,27.1q0,6.21-3.44,10a13.13,13.13,0,0,1-18.44,0,14.25,14.25,0,0,1-3.46-10q0-6.24,3.44-10a13.21,13.21,0,0,1,18.48,0Q180,20.83,180,27.1Zm-20,0a10.41,10.41,0,0,0,2,6.69,6.5,6.5,0,0,0,5.33,2.46,6.44,6.44,0,0,0,5.33-2.44,10.51,10.51,0,0,0,1.95-6.71,10.58,10.58,0,0,0-1.95-6.72,7,7,0,0,0-10.7,0A10.58,10.58,0,0,0,160,27.1Z" fill="#373737"/>
    </g>
    <polygon points="26.46 18.14 0 35.95 0 1 26.46 18.14" fill="#0072c9"/>
    <polygon points="51.93 1 51.93 34.66 27.36 53.17 0 35.95 51.93 1" fill="#ef454a"/>
</svg>
