<svg xmlns="http://www.w3.org/2000/svg" width="2560" height="1610" viewBox="0 0 2560 1610">
    <rect width="2560" height="1614" fill="#fafafa"/>
    <path d="M1532.7,1346V253.7l946.9,546.1Z" fill="#fff"/>
    <path d="M2327.3,315.3V1390.7L1395.1,853Z" fill="#fff" opacity="0.6" style="isolation: isolate"/>
    <path d="M1837.7,802.5v316.3l658.8-380.3V422.2Z" fill="#f3f3f3"/>
    <path d="M1976.4,1218V1087l113.6,65.5Z" fill="#ef454a"/>
    <path d="M2090.4,1152.2v-73.3l63.6,36.7Z" fill="#ef454a"/>
    <path d="M1954.2,1157.5V1000.3l136.2,78.6Z" fill="#141414" opacity="0.05" style="isolation: isolate"/>
    <polygon points="1169.2 0.04 1169.2 1302 -0.28 626.78 1087.81 0.04 1169.2 0.04" fill="#fff" opacity="0.7" style="isolation: isolate"/>
    <polygon points="1752.2 856.8 1752.2 1004.4 1392.3 797.1 1392.3 649.4 1752.2 856.8" fill="#ef454a"/>
    <path d="M1347.7,1093.8V262.5l720.7,415.6Z" fill="#0072c9"/>
    <polygon points="452.9 0.04 452.9 465.1 -0.61 202.71 1.37 0.04 452.9 0.04" fill="#fff"/>
    <path d="M1409.6,1308.5-.61,497V202.71l1410,812Z" fill="#f3f3f3"/>
    <polygon points="1708 808.8 1446.5 959.6 452.7 367.7 699.3 225.5 1708 808.8" fill="#f3f3f3"/>
    <path d="M1652.6,1223.2v355.1l-307.8-177.5Z" fill="#fff"/>
    <polygon points="1447.8 1184.6 1348.95 1241.86 1587.81 1379.73 1490.25 1436.47 1362.29 1510.88 1362.21 1510.93 1249.07 1446.25 1181.07 1485.55 789.4 1257 789.4 1036.91 452.5 842.3 452.5 757.87 236 633.2 236 486.8 1313.2 1107.1 2202.7 592.1 2202.7 747.6 1447.8 1184.6" fill="#0072c9"/>
    <polygon points="2327.7 667.2 2327.7 835.9 2327.6 835.9 1338.3 1411.3 1338.3 1242.6 2327.7 667.2" fill="#373737"/>
    <path d="M2327.8,667.3V836l-146.3-84.3Z" fill="#141414" opacity="0.2" style="isolation: isolate"/>
    <polygon points="1347.7 601 1347.7 748.7 987.7 541.4 987.7 393.7 1347.7 601" fill="#0072c9"/>
    <polygon points="1503.76 967.67 1503.76 1087.92 1210.65 919.14 1210.65 798.88 1503.76 967.67" fill="#0072c9"/>
    <polygon points="724 620.2 724 767.8 364 560.5 364 412.8 724 620.2" fill="#ef454a"/>
    <polygon points="1400.77 725.26 1400.77 832.93 1138.17 681.71 1138.17 573.97 1400.77 725.26" fill="#373737"/>
    <path d="M364,560.1V413l127.5,73.6Z" fill="#373737" opacity="0.1" style="isolation: isolate"/>
    <path d="M292.1,455V371.6l72.2,41.7Z" fill="#ef454a"/>
    <path d="M509.3,931.8V774.6l136.2,78.6Z" fill="#141414" opacity="0.05" style="isolation: isolate"/>
    <polygon points="1725.5 790 1725.5 818 1347.7 601 1347.7 573 1725.5 790" fill="#ef454a"/>
    <polygon points="1490.25 1436.47 1362.29 1510.88 789.4 1183.18 631.79 1093.13 631.79 945.43 789.4 1035.5 1490.25 1436.47" fill="#ef454a"/>
    <path d="M789.6,1183.1v303.1L526.8,1334.7Z" fill="#fff"/>
    <path d="M881.4,330.47l-.64,291.73-259-153.67Z" fill="#fafafa"/>
    <path d="M1115.18,1222.35l229.72-134.28,1.59,266.35Z" fill="#373737"/>
    <path d="M1707.28,1026.47V779.41l214.25,123.53Z" fill="#fff"/>
    <path d="M985.86,1148.32l128.54-75.14.84,149.15Z" fill="#373737"/>
</svg>
